<?xml version="1.0" encoding="utf-8"?>
<!-- Generator: Adobe Illustrator 26.2.1, SVG Export Plug-In . SVG Version: 6.00 Build 0)  -->
<svg version="1.1" id="Ebene_1" xmlns="http://www.w3.org/2000/svg" xmlns:xlink="http://www.w3.org/1999/xlink" x="0px" y="0px"
	 viewBox="0 0 320 320" style="enable-background:new 0 0 320 320;" xml:space="preserve">
<style type="text/css">
	.st0{fill:#FFFFFF;}
</style>
<path class="st0" d="M315.3,315.3c-6.3,6.3-16.4,6.3-22.6,0L160,182.6L27.3,315.3c-6.3,6.3-16.4,6.3-22.6,0
	c-6.3-6.3-6.3-16.4,0-22.6L137.4,160L4.7,27.3c-6.3-6.3-6.3-16.4,0-22.6c6.3-6.3,16.4-6.3,22.6,0L160,137.4L292.7,4.7
	c6.3-6.3,16.4-6.3,22.6,0c6.3,6.3,6.3,16.4,0,22.6L182.6,160l132.7,132.7C321.6,298.9,321.6,309.1,315.3,315.3z"/>
</svg>
